<?xml version="1.0" encoding="UTF-8" standalone="no"?>
<!-- Created with matplotlib (http://matplotlib.org/) -->

<svg
   xmlns:dc="http://purl.org/dc/elements/1.1/"
   xmlns:cc="http://creativecommons.org/ns#"
   xmlns:rdf="http://www.w3.org/1999/02/22-rdf-syntax-ns#"
   xmlns:svg="http://www.w3.org/2000/svg"
   xmlns="http://www.w3.org/2000/svg"
   xmlns:sodipodi="http://sodipodi.sourceforge.net/DTD/sodipodi-0.dtd"
   xmlns:inkscape="http://www.inkscape.org/namespaces/inkscape"
   height="73mm"
   version="1.1"
   viewBox="0 0 357.16536 206.92911"
   width="126mm"
   id="svg229"
   sodipodi:docname="swap2_final.svg"
   inkscape:version="0.92.3 (unknown)">
  <metadata
     id="metadata233">
    <rdf:RDF>
      <cc:Work
         rdf:about="">
        <dc:format>image/svg+xml</dc:format>
        <dc:type
           rdf:resource="http://purl.org/dc/dcmitype/StillImage" />
        <dc:title></dc:title>
      </cc:Work>
    </rdf:RDF>
  </metadata>
  <sodipodi:namedview
     pagecolor="#ffffff"
     bordercolor="#666666"
     borderopacity="1"
     objecttolerance="10"
     gridtolerance="10"
     guidetolerance="10"
     inkscape:pageopacity="0"
     inkscape:pageshadow="2"
     inkscape:window-width="1920"
     inkscape:window-height="1140"
     id="namedview231"
     showgrid="false"
     inkscape:zoom="1.4485868"
     inkscape:cx="171.00924"
     inkscape:cy="283.56865"
     inkscape:window-x="0"
     inkscape:window-y="31"
     inkscape:window-maximized="1"
     inkscape:current-layer="axes_1"
     units="mm"
     showguides="true"
     inkscape:guide-bbox="true">
    <sodipodi:guide
       position="-61.611769,20.709838"
       orientation="0,1"
       id="guide1048"
       inkscape:locked="false" />
    <sodipodi:guide
       position="44.008411,69.377953"
       orientation="1,0"
       id="guide1054"
       inkscape:locked="false" />
  </sodipodi:namedview>
  <defs
     id="defs4"
     style="stroke-linecap:butt;stroke-linejoin:round">
    <style
       type="text/css"
       id="style2">
*{stroke-linecap:butt;stroke-linejoin:round;}
  </style>
  </defs>
  <g
     style="stroke-linecap:butt;stroke-linejoin:round"
     id="axes_1"
     transform="translate(0,-138.67091)">
    <g
       id="g1046"
       style="stroke-linecap:butt;stroke-linejoin:round"
       transform="translate(-62.952056,61.665007)">
      <g
         id="line2d_1"
         style="stroke-linecap:butt;stroke-linejoin:round">
        <path
           clip-path="url(#p3bf4e05eec)"
           d="m 393.24532,256.58624 -0.33661,-0.5794 -0.92452,-1.62932 -1.56951,-2.76016 -2.09692,-3.62982 -2.44293,-4.1152 -2.6119,-4.22786 -2.64319,-4.04897 -2.58822,-3.6836 -2.49596,-3.2321 -2.40536,-2.77494 -2.34274,-2.36733 -2.32223,-2.04003 -2.34805,-1.80368 -2.41733,-1.65442 -2.52289,-1.57937 -2.65566,-1.56146 -2.80636,-1.58289 -2.96673,-1.62743 -3.12997,-1.68178 -3.29108,-1.73587 -3.44668,-1.78284 -3.59476,-1.81849 -3.73437,-1.84078 -3.86095,-1.84909 -3.93389,-2.01479 -3.89196,-2.82007 -3.76254,-3.90069 -3.52456,-4.75356 -3.24813,-5.22309 -2.94127,-5.1309 -2.92516,-4.64246 -3.30594,-3.9627 -3.88944,-3.16192 -4.51449,-2.36013 -5.0761,-1.64135 -5.58966,-1.04461 -6.03068,-0.58618 -6.38626,-0.26304 -6.65153,-0.0581 -6.83384,0.0524 -6.94873,0.0923 -7.01412,0.0823 -7.04482,0.0418 -7.01996,-0.008 -6.8971,-0.0521 -6.80552,-0.0915 -6.70327,-0.11764 -6.53695,-0.12669 -6.36564,-0.12379 -6.20002,-0.11295 -6.08607,-0.42165 -5.61949,-1.75554 -3.76481,-3.65283 -1.51289,-5.8348 -0.13882,-7.2366 0.68875,-7.57472 1.0128,-7.29231 0.72624,-4.23253 0.83966,-1.29828 0.68892,3.07899 -0.39794,7.18133 -2.14987,9.35106 -4.02533,9.44781 -5.40675,7.81905 -6.19224,5.64266 -6.49144,4.44184 -6.34319,3.881 -5.9257,3.70038 -5.43924,3.86219 -4.9404,4.14544 -4.45068,4.37839 -3.98555,4.47842 -3.55436,4.42289 -3.16107,4.22526 -2.80574,3.91738 -2.48574,3.53703 -2.19721,3.12033 -1.93596,2.69745 -1.69829,2.29113 -1.48134,1.91661 -1.28318,1.58269 -1.10274,1.2929 -0.9394,1.04699 -0.792738,0.84203 -0.662249,0.67356 -0.547593,0.53672 -0.449816,0.42835 -0.370117,0.34599 -0.307828,0.28598"
           style="fill:none;stroke:#0000ff;stroke-width:2;stroke-linecap:square;stroke-linejoin:round"
           id="path9"
           inkscape:connector-curvature="0" />
      </g>
      <g
         id="line2d_2"
         style="stroke-linecap:butt;stroke-linejoin:round">
        <path
           clip-path="url(#p3bf4e05eec)"
           d="m 93.609363,228.096 1.390227,1e-5 1.830164,1e-5 1.655126,3e-5 1.228839,5e-5 0.785251,6e-5 0.45403,8e-5 0.28843,9e-5 0.2912,1.2e-4 0.43624,1.3e-4 0.68476,1.5e-4 0.99642,1.7e-4 1.33592,1.8e-4 1.67611,2e-4 1.99867,2.2e-4 2.29321,2.2e-4 2.5557,2.4e-4 2.78661,2.5e-4 2.98915,2.5e-4 3.16783,2.6e-4 3.32751,2.7e-4 3.47258,2.8e-4 3.6067,2.7e-4 3.73258,2.8e-4 3.85209,2.9e-4 3.96634,2.8e-4 4.07586,2.7e-4 4.18078,2.8e-4 4.28095,2.7e-4 4.3761,2.6e-4 4.46594,2.6e-4 4.55015,2.5e-4 4.62849,2.4e-4 4.7008,2.2e-4 4.76693,2.1e-4 4.82681,2e-4 4.88043,1.8e-4 4.92777,1.6e-4 4.50768,-0.0256 2.20446,-0.1293 -1.43958,-0.22794 -5.45825,-0.34056 -8.71349,-0.52965 -10.04871,-0.64293 -9.90409,-0.58007 -8.95299,-0.66352 -7.74767,-1.71453 -6.48771,-3.31871 -5.2016,-5.69819 -3.92043,-7.88465 -2.85881,-9.34267 -2.42555,-9.83664 -2.51726,-9.72176 -2.57008,-9.76085 -2.51351,-9.80163 -2.16455,-9.49989 -1.71588,-8.94986 -1.27012,-8.35541 -0.9391,-7.5388 -0.81432,-6.05193 -0.58858,-5.11172 -0.38783,-3.9246 -0.0463,-3.34161 0.26706,-2.7316 1.17098,-2.21468 3.69363,-2.194483 5.91568,-2.98416 8.45009,-3.14434 11.81882,-2.101276 15.19801,0.562407 17.81106,3.779758 19.05518,5.966934 19.80224,8.18439 19.8512,10.15808 19.13917,11.48771 17.80288,12.05576 16.0365,11.91826 14.03906,11.22121 11.98395,10.14197 10.00477,8.85167 8.19243,7.49438 6.59883,6.17845 5.24401,4.97594 4.12445,3.92688 3.2209,3.04579 2.50509,2.32873 1.94682,1.76135 1.52293,1.32842 1.21481,1.01412 1.00115,0.79812"
           style="fill:none;stroke:#008000;stroke-width:2;stroke-linecap:square;stroke-linejoin:round"
           id="path12"
           inkscape:connector-curvature="0" />
      </g>
      <g
         id="patch_2"
         style="stroke-linecap:butt;stroke-linejoin:round">
        <path
           clip-path="url(#p3bf4e05eec)"
           d="m 107.5968,270.9504 h 7.1424 v -7.1424 h -7.1424 z"
           style="opacity:0.5;fill:#1f77b4;stroke-linecap:butt;stroke-linejoin:round"
           id="path15"
           inkscape:connector-curvature="0" />
      </g>
      <g
         id="patch_3"
         style="stroke-linecap:butt;stroke-linejoin:round">
        <path
           clip-path="url(#p3bf4e05eec)"
           d="m 114.7392,270.9504 h 7.1424 v -7.1424 h -7.1424 z"
           style="opacity:0.5;fill:#1f77b4;stroke-linecap:butt;stroke-linejoin:round"
           id="path18"
           inkscape:connector-curvature="0" />
      </g>
      <g
         id="patch_4"
         style="stroke-linecap:butt;stroke-linejoin:round">
        <path
           clip-path="url(#p3bf4e05eec)"
           d="m 121.8816,270.9504 h 7.1424 v -7.1424 h -7.1424 z"
           style="opacity:0.5;fill:#1f77b4;stroke-linecap:butt;stroke-linejoin:round"
           id="path21"
           inkscape:connector-curvature="0" />
      </g>
      <g
         id="patch_5"
         style="stroke-linecap:butt;stroke-linejoin:round">
        <path
           clip-path="url(#p3bf4e05eec)"
           d="m 129.024,270.9504 h 7.1424 v -7.1424 h -7.1424 z"
           style="opacity:0.5;fill:#1f77b4;stroke-linecap:butt;stroke-linejoin:round"
           id="path24"
           inkscape:connector-curvature="0" />
      </g>
      <g
         id="patch_6"
         style="stroke-linecap:butt;stroke-linejoin:round">
        <path
           clip-path="url(#p3bf4e05eec)"
           d="m 136.1664,270.9504 h 7.1424 v -7.1424 h -7.1424 z"
           style="opacity:0.5;fill:#1f77b4;stroke-linecap:butt;stroke-linejoin:round"
           id="path27"
           inkscape:connector-curvature="0" />
      </g>
      <g
         id="patch_7"
         style="stroke-linecap:butt;stroke-linejoin:round">
        <path
           clip-path="url(#p3bf4e05eec)"
           d="m 143.3088,270.9504 h 7.1424 v -7.1424 h -7.1424 z"
           style="opacity:0.5;fill:#1f77b4;stroke-linecap:butt;stroke-linejoin:round"
           id="path30"
           inkscape:connector-curvature="0" />
      </g>
      <g
         id="patch_8"
         style="stroke-linecap:butt;stroke-linejoin:round">
        <path
           clip-path="url(#p3bf4e05eec)"
           d="m 150.4512,270.9504 h 7.1424 v -7.1424 h -7.1424 z"
           style="opacity:0.5;fill:#1f77b4;stroke-linecap:butt;stroke-linejoin:round"
           id="path33"
           inkscape:connector-curvature="0" />
      </g>
      <g
         id="patch_9"
         style="stroke-linecap:butt;stroke-linejoin:round">
        <path
           clip-path="url(#p3bf4e05eec)"
           d="m 157.5936,270.9504 h 7.1424 v -7.1424 h -7.1424 z"
           style="opacity:0.5;fill:#1f77b4;stroke-linecap:butt;stroke-linejoin:round"
           id="path36"
           inkscape:connector-curvature="0" />
      </g>
      <g
         id="patch_10"
         style="stroke-linecap:butt;stroke-linejoin:round">
        <path
           clip-path="url(#p3bf4e05eec)"
           d="m 164.736,270.9504 h 7.1424 v -7.1424 h -7.1424 z"
           style="opacity:0.5;fill:#1f77b4;stroke-linecap:butt;stroke-linejoin:round"
           id="path39"
           inkscape:connector-curvature="0" />
      </g>
      <g
         id="patch_11"
         style="stroke-linecap:butt;stroke-linejoin:round">
        <path
           clip-path="url(#p3bf4e05eec)"
           d="m 171.8784,270.9504 h 7.1424 v -7.1424 h -7.1424 z"
           style="opacity:0.5;fill:#1f77b4;stroke-linecap:butt;stroke-linejoin:round"
           id="path42"
           inkscape:connector-curvature="0" />
      </g>
      <g
         id="patch_12"
         style="stroke-linecap:butt;stroke-linejoin:round">
        <path
           clip-path="url(#p3bf4e05eec)"
           d="m 179.0208,270.9504 h 7.1424 v -7.1424 h -7.1424 z"
           style="opacity:0.5;fill:#1f77b4;stroke-linecap:butt;stroke-linejoin:round"
           id="path45"
           inkscape:connector-curvature="0" />
      </g>
      <g
         id="patch_13"
         style="stroke-linecap:butt;stroke-linejoin:round">
        <path
           clip-path="url(#p3bf4e05eec)"
           d="m 186.1632,270.9504 h 7.1424 v -7.1424 h -7.1424 z"
           style="opacity:0.5;fill:#1f77b4;stroke-linecap:butt;stroke-linejoin:round"
           id="path48"
           inkscape:connector-curvature="0" />
      </g>
      <g
         id="patch_14"
         style="stroke-linecap:butt;stroke-linejoin:round">
        <path
           clip-path="url(#p3bf4e05eec)"
           d="m 193.3056,270.9504 h 7.1424 v -7.1424 h -7.1424 z"
           style="opacity:0.5;fill:#1f77b4;stroke-linecap:butt;stroke-linejoin:round"
           id="path51"
           inkscape:connector-curvature="0" />
      </g>
      <g
         id="patch_15"
         style="stroke-linecap:butt;stroke-linejoin:round">
        <path
           clip-path="url(#p3bf4e05eec)"
           d="m 200.448,270.9504 h 7.1424 v -7.1424 h -7.1424 z"
           style="opacity:0.5;fill:#1f77b4;stroke-linecap:butt;stroke-linejoin:round"
           id="path54"
           inkscape:connector-curvature="0" />
      </g>
      <g
         id="patch_16"
         style="stroke-linecap:butt;stroke-linejoin:round">
        <path
           clip-path="url(#p3bf4e05eec)"
           d="m 207.5904,270.9504 h 7.1424 v -7.1424 h -7.1424 z"
           style="opacity:0.5;fill:#1f77b4;stroke-linecap:butt;stroke-linejoin:round"
           id="path57"
           inkscape:connector-curvature="0" />
      </g>
      <g
         id="patch_17"
         style="stroke-linecap:butt;stroke-linejoin:round">
        <path
           clip-path="url(#p3bf4e05eec)"
           d="m 214.7328,270.9504 h 7.1424 v -7.1424 h -7.1424 z"
           style="opacity:0.5;fill:#1f77b4;stroke-linecap:butt;stroke-linejoin:round"
           id="path60"
           inkscape:connector-curvature="0" />
      </g>
      <g
         id="patch_18"
         style="stroke-linecap:butt;stroke-linejoin:round">
        <path
           clip-path="url(#p3bf4e05eec)"
           d="m 221.8752,270.9504 h 7.1424 v -7.1424 h -7.1424 z"
           style="opacity:0.5;fill:#1f77b4;stroke-linecap:butt;stroke-linejoin:round"
           id="path63"
           inkscape:connector-curvature="0" />
      </g>
      <g
         id="patch_19"
         style="stroke-linecap:butt;stroke-linejoin:round">
        <path
           clip-path="url(#p3bf4e05eec)"
           d="m 229.0176,270.9504 h 7.1424 v -7.1424 h -7.1424 z"
           style="opacity:0.5;fill:#1f77b4;stroke-linecap:butt;stroke-linejoin:round"
           id="path66"
           inkscape:connector-curvature="0" />
      </g>
      <g
         id="patch_20"
         style="stroke-linecap:butt;stroke-linejoin:round">
        <path
           clip-path="url(#p3bf4e05eec)"
           d="m 236.16,270.9504 h 7.1424 V 263.808 H 236.16 Z"
           style="opacity:0.5;fill:#1f77b4;stroke-linecap:butt;stroke-linejoin:round"
           id="path69"
           inkscape:connector-curvature="0" />
      </g>
      <g
         id="patch_21"
         style="stroke-linecap:butt;stroke-linejoin:round">
        <path
           clip-path="url(#p3bf4e05eec)"
           d="m 243.3024,270.9504 h 7.1424 v -7.1424 h -7.1424 z"
           style="opacity:0.5;fill:#1f77b4;stroke-linecap:butt;stroke-linejoin:round"
           id="path72"
           inkscape:connector-curvature="0" />
      </g>
      <g
         id="patch_22"
         style="stroke-linecap:butt;stroke-linejoin:round">
        <path
           clip-path="url(#p3bf4e05eec)"
           d="m 250.4448,270.9504 h 7.1424 v -7.1424 h -7.1424 z"
           style="opacity:0.5;fill:#1f77b4;stroke-linecap:butt;stroke-linejoin:round"
           id="path75"
           inkscape:connector-curvature="0" />
      </g>
      <g
         id="patch_23"
         style="stroke-linecap:butt;stroke-linejoin:round">
        <path
           clip-path="url(#p3bf4e05eec)"
           d="m 257.5872,270.9504 h 7.1424 v -7.1424 h -7.1424 z"
           style="opacity:0.5;fill:#1f77b4;stroke-linecap:butt;stroke-linejoin:round"
           id="path78"
           inkscape:connector-curvature="0" />
      </g>
      <g
         id="patch_24"
         style="stroke-linecap:butt;stroke-linejoin:round">
        <path
           clip-path="url(#p3bf4e05eec)"
           d="m 264.7296,270.9504 h 7.1424 v -7.1424 h -7.1424 z"
           style="opacity:0.5;fill:#1f77b4;stroke-linecap:butt;stroke-linejoin:round"
           id="path81"
           inkscape:connector-curvature="0" />
      </g>
      <g
         id="patch_25"
         style="stroke-linecap:butt;stroke-linejoin:round">
        <path
           clip-path="url(#p3bf4e05eec)"
           d="m 271.872,270.9504 h 7.1424 v -7.1424 h -7.1424 z"
           style="opacity:0.5;fill:#1f77b4;stroke-linecap:butt;stroke-linejoin:round"
           id="path84"
           inkscape:connector-curvature="0" />
      </g>
      <g
         id="patch_26"
         style="stroke-linecap:butt;stroke-linejoin:round">
        <path
           clip-path="url(#p3bf4e05eec)"
           d="m 271.872,263.808 h 7.1424 v -7.1424 h -7.1424 z"
           style="opacity:0.5;fill:#1f77b4;stroke-linecap:butt;stroke-linejoin:round"
           id="path87"
           inkscape:connector-curvature="0" />
      </g>
      <g
         id="patch_27"
         style="stroke-linecap:butt;stroke-linejoin:round">
        <path
           clip-path="url(#p3bf4e05eec)"
           d="m 271.872,256.6656 h 7.1424 v -7.1424 h -7.1424 z"
           style="opacity:0.5;fill:#1f77b4;stroke-linecap:butt;stroke-linejoin:round"
           id="path90"
           inkscape:connector-curvature="0" />
      </g>
      <g
         id="patch_28"
         style="stroke-linecap:butt;stroke-linejoin:round">
        <path
           clip-path="url(#p3bf4e05eec)"
           d="m 271.872,249.5232 h 7.1424 v -7.1424 h -7.1424 z"
           style="opacity:0.5;fill:#1f77b4;stroke-linecap:butt;stroke-linejoin:round"
           id="path93"
           inkscape:connector-curvature="0" />
      </g>
      <g
         id="patch_29"
         style="stroke-linecap:butt;stroke-linejoin:round">
        <path
           clip-path="url(#p3bf4e05eec)"
           d="m 271.872,242.3808 h 7.1424 v -7.1424 h -7.1424 z"
           style="opacity:0.5;fill:#1f77b4;stroke-linecap:butt;stroke-linejoin:round"
           id="path96"
           inkscape:connector-curvature="0" />
      </g>
      <g
         id="patch_30"
         style="stroke-linecap:butt;stroke-linejoin:round">
        <path
           clip-path="url(#p3bf4e05eec)"
           d="m 271.872,235.2384 h 7.1424 v -7.1424 h -7.1424 z"
           style="opacity:0.5;fill:#1f77b4;stroke-linecap:butt;stroke-linejoin:round"
           id="path99"
           inkscape:connector-curvature="0" />
      </g>
      <g
         id="patch_31"
         style="stroke-linecap:butt;stroke-linejoin:round">
        <path
           clip-path="url(#p3bf4e05eec)"
           d="m 271.872,228.096 h 7.1424 v -7.1424 h -7.1424 z"
           style="opacity:0.5;fill:#1f77b4;stroke-linecap:butt;stroke-linejoin:round"
           id="path102"
           inkscape:connector-curvature="0" />
      </g>
      <g
         id="patch_32"
         style="stroke-linecap:butt;stroke-linejoin:round">
        <path
           clip-path="url(#p3bf4e05eec)"
           d="m 271.872,220.9536 h 7.1424 v -7.1424 h -7.1424 z"
           style="opacity:0.5;fill:#1f77b4;stroke-linecap:butt;stroke-linejoin:round"
           id="path105"
           inkscape:connector-curvature="0" />
      </g>
      <g
         id="patch_33"
         style="stroke-linecap:butt;stroke-linejoin:round">
        <path
           clip-path="url(#p3bf4e05eec)"
           d="m 271.872,213.8112 h 7.1424 v -7.1424 h -7.1424 z"
           style="opacity:0.5;fill:#1f77b4;stroke-linecap:butt;stroke-linejoin:round"
           id="path108"
           inkscape:connector-curvature="0" />
      </g>
      <g
         id="patch_34"
         style="stroke-linecap:butt;stroke-linejoin:round">
        <path
           clip-path="url(#p3bf4e05eec)"
           d="m 271.872,206.6688 h 7.1424 v -7.1424 h -7.1424 z"
           style="opacity:0.5;fill:#1f77b4;stroke-linecap:butt;stroke-linejoin:round"
           id="path111"
           inkscape:connector-curvature="0" />
      </g>
      <g
         id="patch_35"
         style="stroke-linecap:butt;stroke-linejoin:round">
        <path
           clip-path="url(#p3bf4e05eec)"
           d="m 271.872,199.5264 h 7.1424 v -7.1424 h -7.1424 z"
           style="opacity:0.5;fill:#1f77b4;stroke-linecap:butt;stroke-linejoin:round"
           id="path114"
           inkscape:connector-curvature="0" />
      </g>
      <g
         id="patch_36"
         style="stroke-linecap:butt;stroke-linejoin:round">
        <path
           clip-path="url(#p3bf4e05eec)"
           d="m 179.0208,192.384 h 7.1424 v -7.1424 h -7.1424 z"
           style="opacity:0.5;fill:#1f77b4;stroke-linecap:butt;stroke-linejoin:round"
           id="path117"
           inkscape:connector-curvature="0" />
      </g>
      <g
         id="patch_37"
         style="stroke-linecap:butt;stroke-linejoin:round">
        <path
           clip-path="url(#p3bf4e05eec)"
           d="m 186.1632,192.384 h 7.1424 v -7.1424 h -7.1424 z"
           style="opacity:0.5;fill:#1f77b4;stroke-linecap:butt;stroke-linejoin:round"
           id="path120"
           inkscape:connector-curvature="0" />
      </g>
      <g
         id="patch_38"
         style="stroke-linecap:butt;stroke-linejoin:round">
        <path
           clip-path="url(#p3bf4e05eec)"
           d="m 193.3056,192.384 h 7.1424 v -7.1424 h -7.1424 z"
           style="opacity:0.5;fill:#1f77b4;stroke-linecap:butt;stroke-linejoin:round"
           id="path123"
           inkscape:connector-curvature="0" />
      </g>
      <g
         id="patch_39"
         style="stroke-linecap:butt;stroke-linejoin:round">
        <path
           clip-path="url(#p3bf4e05eec)"
           d="m 200.448,192.384 h 7.1424 v -7.1424 h -7.1424 z"
           style="opacity:0.5;fill:#1f77b4;stroke-linecap:butt;stroke-linejoin:round"
           id="path126"
           inkscape:connector-curvature="0" />
      </g>
      <g
         id="patch_40"
         style="stroke-linecap:butt;stroke-linejoin:round">
        <path
           clip-path="url(#p3bf4e05eec)"
           d="m 207.5904,192.384 h 7.1424 v -7.1424 h -7.1424 z"
           style="opacity:0.5;fill:#1f77b4;stroke-linecap:butt;stroke-linejoin:round"
           id="path129"
           inkscape:connector-curvature="0" />
      </g>
      <g
         id="patch_41"
         style="stroke-linecap:butt;stroke-linejoin:round">
        <path
           clip-path="url(#p3bf4e05eec)"
           d="m 214.7328,192.384 h 7.1424 v -7.1424 h -7.1424 z"
           style="opacity:0.5;fill:#1f77b4;stroke-linecap:butt;stroke-linejoin:round"
           id="path132"
           inkscape:connector-curvature="0" />
      </g>
      <g
         id="patch_42"
         style="stroke-linecap:butt;stroke-linejoin:round">
        <path
           clip-path="url(#p3bf4e05eec)"
           d="m 221.8752,192.384 h 7.1424 v -7.1424 h -7.1424 z"
           style="opacity:0.5;fill:#1f77b4;stroke-linecap:butt;stroke-linejoin:round"
           id="path135"
           inkscape:connector-curvature="0" />
      </g>
      <g
         id="patch_43"
         style="stroke-linecap:butt;stroke-linejoin:round">
        <path
           clip-path="url(#p3bf4e05eec)"
           d="m 229.0176,192.384 h 7.1424 v -7.1424 h -7.1424 z"
           style="opacity:0.5;fill:#1f77b4;stroke-linecap:butt;stroke-linejoin:round"
           id="path138"
           inkscape:connector-curvature="0" />
      </g>
      <g
         id="patch_44"
         style="stroke-linecap:butt;stroke-linejoin:round">
        <path
           clip-path="url(#p3bf4e05eec)"
           d="m 236.16,192.384 h 7.1424 v -7.1424 H 236.16 Z"
           style="opacity:0.5;fill:#1f77b4;stroke-linecap:butt;stroke-linejoin:round"
           id="path141"
           inkscape:connector-curvature="0" />
      </g>
      <g
         id="patch_45"
         style="stroke-linecap:butt;stroke-linejoin:round">
        <path
           clip-path="url(#p3bf4e05eec)"
           d="m 243.3024,192.384 h 7.1424 v -7.1424 h -7.1424 z"
           style="opacity:0.5;fill:#1f77b4;stroke-linecap:butt;stroke-linejoin:round"
           id="path144"
           inkscape:connector-curvature="0" />
      </g>
      <g
         id="patch_46"
         style="stroke-linecap:butt;stroke-linejoin:round">
        <path
           clip-path="url(#p3bf4e05eec)"
           d="m 250.4448,192.384 h 7.1424 v -7.1424 h -7.1424 z"
           style="opacity:0.5;fill:#1f77b4;stroke-linecap:butt;stroke-linejoin:round"
           id="path147"
           inkscape:connector-curvature="0" />
      </g>
      <g
         id="patch_47"
         style="stroke-linecap:butt;stroke-linejoin:round">
        <path
           clip-path="url(#p3bf4e05eec)"
           d="m 257.5872,192.384 h 7.1424 v -7.1424 h -7.1424 z"
           style="opacity:0.5;fill:#1f77b4;stroke-linecap:butt;stroke-linejoin:round"
           id="path150"
           inkscape:connector-curvature="0" />
      </g>
      <g
         id="patch_48"
         style="stroke-linecap:butt;stroke-linejoin:round">
        <path
           clip-path="url(#p3bf4e05eec)"
           d="m 264.7296,192.384 h 7.1424 v -7.1424 h -7.1424 z"
           style="opacity:0.5;fill:#1f77b4;stroke-linecap:butt;stroke-linejoin:round"
           id="path153"
           inkscape:connector-curvature="0" />
      </g>
      <g
         id="patch_49"
         style="stroke-linecap:butt;stroke-linejoin:round">
        <path
           clip-path="url(#p3bf4e05eec)"
           d="m 271.872,192.384 h 7.1424 v -7.1424 h -7.1424 z"
           style="opacity:0.5;fill:#1f77b4;stroke-linecap:butt;stroke-linejoin:round"
           id="path156"
           inkscape:connector-curvature="0" />
      </g>
      <g
         id="patch_50"
         style="stroke-linecap:butt;stroke-linejoin:round">
        <path
           clip-path="url(#p3bf4e05eec)"
           d="m 96.959409,245.75236 c 5.682561,0 11.133141,-2.25771 15.151321,-6.27588 4.01817,-4.01818 6.27588,-9.46876 6.27588,-15.15132 0,-5.68256 -2.25771,-11.13314 -6.27588,-15.15132 -4.01818,-4.01818 -9.46876,-6.27588 -15.151321,-6.27588 -5.68256,0 -11.133142,2.2577 -15.151319,6.27588 -4.018176,4.01818 -6.275881,9.46876 -6.275881,15.15132 0,5.68256 2.257705,11.13314 6.275881,15.15132 4.018177,4.01817 9.468759,6.27588 15.151319,6.27588 z"
           style="opacity:0.2;fill:#0000ff;stroke-linecap:butt;stroke-linejoin:round"
           id="path159"
           inkscape:connector-curvature="0" />
      </g>
      <g
         id="patch_51"
         style="stroke-linecap:butt;stroke-linejoin:round">
        <path
           clip-path="url(#p3bf4e05eec)"
           d="m 364.70946,238.34719 c 5.68256,0 11.13314,-2.2577 15.15132,-6.27588 4.01818,-4.01818 6.27588,-9.46876 6.27588,-15.15132 0,-5.68256 -2.2577,-11.13314 -6.27588,-15.15132 -4.01818,-4.01817 -9.46876,-6.27588 -15.15132,-6.27588 -5.68256,0 -11.13314,2.25771 -15.15132,6.27588 -4.01817,4.01818 -6.27588,9.46876 -6.27588,15.15132 0,5.68256 2.25771,11.13314 6.27588,15.15132 4.01818,4.01818 9.46876,6.27588 15.15132,6.27588 z"
           style="opacity:0.2;fill:#008000;stroke-linecap:butt;stroke-linejoin:round"
           id="path162"
           inkscape:connector-curvature="0" />
      </g>
      <g
         id="patch_52"
         style="stroke-linecap:butt;stroke-linejoin:round">
        <path
           clip-path="url(#p3bf4e05eec)"
           d="m 271.872,185.2416 h 7.1424 v 85.7088 h -7.1424 v -85.7088"
           style="fill:#808080;stroke:#808080;stroke-linecap:butt;stroke-linejoin:miter"
           id="path199"
           inkscape:connector-curvature="0" />
      </g>
      <g
         id="patch_53"
         style="stroke-linecap:butt;stroke-linejoin:round">
        <path
           clip-path="url(#p3bf4e05eec)"
           d="m 179.0208,192.384 h 92.8512 v -7.1424 h -92.8512 v 7.1424"
           style="fill:#808080;stroke:#808080;stroke-linecap:butt;stroke-linejoin:miter"
           id="path202"
           inkscape:connector-curvature="0" />
      </g>
      <g
         id="patch_54"
         style="stroke-linecap:butt;stroke-linejoin:round">
        <path
           clip-path="url(#p3bf4e05eec)"
           d="M 107.5968,263.808 H 271.872 v 7.1424 H 107.5968 v -7.1424"
           style="fill:#808080;stroke:#808080;stroke-linecap:butt;stroke-linejoin:miter"
           id="path205"
           inkscape:connector-curvature="0" />
      </g>
      <g
         id="line2d_3"
         style="stroke-linecap:butt;stroke-linejoin:round">
        <path
           clip-path="url(#p3bf4e05eec)"
           d="M 93.312143,228.096"
           style="opacity:0.8;fill:none;stroke:#0000ff;stroke-width:2;stroke-linecap:butt;stroke-linejoin:round;stroke-dasharray:7.4, 3.2;stroke-dashoffset:0"
           id="path208"
           inkscape:connector-curvature="0" />
      </g>
      <g
         id="line2d_4"
         style="stroke-linecap:butt;stroke-linejoin:round">
        <path
           clip-path="url(#p3bf4e05eec)"
           d="M 379.00807,228.096"
           style="opacity:0.8;fill:none;stroke:#008000;stroke-width:2;stroke-linecap:butt;stroke-linejoin:round;stroke-dasharray:7.4, 3.2;stroke-dashoffset:0"
           id="path211"
           inkscape:connector-curvature="0" />
      </g>
    </g>
    <g
       style="stroke-linecap:butt;stroke-linejoin:round"
       id="line2d_7" />
    <g
       style="stroke-linecap:butt;stroke-linejoin:round"
       id="line2d_8" />
  </g>
  <defs
     id="defs227">
    <clipPath
       id="p3bf4e05eec"
       style="stroke-linecap:butt;stroke-linejoin:round">
      <rect
         height="249.98399"
         width="357.12"
         x="57.599998"
         y="49.535999"
         id="rect224"
         style="stroke-linecap:butt;stroke-linejoin:round" />
    </clipPath>
  </defs>
</svg>
